<svg xmlns="http://www.w3.org/2000/svg" viewBox="0 0 77.75 52.18"><defs><style>.cls-1{fill:#231f20;}</style></defs><g id="Layer_2" data-name="Layer 2"><g id="Layer_1-2" data-name="Layer 1"><path class="cls-1" d="M26.09,52.18a3.08,3.08,0,0,1-2.16-.89l-23-23a3.1,3.1,0,0,1-.63-.91A3,3,0,0,1,0,26.09a2.93,2.93,0,0,1,.27-1.25,2.89,2.89,0,0,1,.62-.91l23-23a3.07,3.07,0,0,1,4.33,0h0a3.06,3.06,0,0,1,0,4.32L10.45,23H74.69a3.06,3.06,0,1,1,0,6.12H10.45L28.26,47a3,3,0,0,1,.89,2.16,3,3,0,0,1-.89,2.17A3.08,3.08,0,0,1,26.09,52.18Z"/></g></g></svg>
