<svg xmlns="http://www.w3.org/2000/svg" viewBox="0 0 49.97 61.71"><defs><style>.cls-1{fill:#5b2d90;}</style></defs><g id="Layer_2" data-name="Layer 2"><g id="Layer_1-2" data-name="Layer 1"><path class="cls-1" d="M44.17,60.71H5.8A5.16,5.16,0,0,1,2,59.13a3.51,3.51,0,0,1-1-2.71L5,13.07H44.93l4,43.35a3.51,3.51,0,0,1-1,2.71A5.16,5.16,0,0,1,44.17,60.71ZM6.86,15.07,3,56.6a1.52,1.52,0,0,0,.44,1.18,3.17,3.17,0,0,0,2.35.93H44.17a3.17,3.17,0,0,0,2.35-.93A1.56,1.56,0,0,0,47,56.6L43.11,15.07Z"/><path class="cls-1" d="M44.17,61.71H5.8A6.15,6.15,0,0,1,1.23,59.8,4.48,4.48,0,0,1,0,56.32L4.13,12.07H45.85L50,56.32a4.48,4.48,0,0,1-1.21,3.48A6.15,6.15,0,0,1,44.17,61.71ZM2.79,58.54a4.17,4.17,0,0,0,3,1.17H44.17a4.16,4.16,0,0,0,3.09-1.25,3.48,3.48,0,0,0,.41-.56,3.48,3.48,0,0,1-.41.56,4.22,4.22,0,0,1-3.09,1.25H5.8A4.26,4.26,0,0,1,2.79,58.54Zm44.88-.64ZM7.77,16.07,4,56.69a.57.57,0,0,0,.19.42,2.2,2.2,0,0,0,1.61.6H44.17a2.25,2.25,0,0,0,1.62-.6.59.59,0,0,0,.18-.42L42.2,16.07ZM2.14,57.53ZM2,57.08a2.46,2.46,0,0,0,.11.45A2.46,2.46,0,0,1,2,57.08Zm0,0Z"/><path class="cls-1" d="M35.69,26.13h-2v-16c0-3.92-3.9-7.1-8.7-7.1s-8.71,3.18-8.71,7.1v16h-2v-16c0-5,4.8-9.1,10.71-9.1s10.7,4.08,10.7,9.1Z"/><path class="cls-1" d="M36.69,27.13h-4v-17C32.69,6.74,29.23,4,25,4s-7.71,2.74-7.71,6.1v17h-4v-17C13.28,4.53,18.53,0,25,0s11.7,4.53,11.7,10.1Zm-21.41-2v-15C15.28,5.63,19.63,2,25,2s9.7,3.63,9.7,8.1C34.69,5.63,30.34,2,25,2s-9.71,3.63-9.71,8.1Z"/><circle class="cls-1" cx="15.28" cy="26.13" r="2.78"/><path class="cls-1" d="M15.28,29.92a3.79,3.79,0,1,1,3.78-3.79A3.79,3.79,0,0,1,15.28,29.92Zm0-5.57a1.79,1.79,0,1,0,1.78,1.78A1.78,1.78,0,0,0,15.28,24.35Z"/><circle class="cls-1" cx="34.69" cy="26.13" r="2.78"/><path class="cls-1" d="M34.69,29.92a3.79,3.79,0,1,1,3.78-3.79A3.79,3.79,0,0,1,34.69,29.92Zm0-5.57a1.79,1.79,0,1,0,1.78,1.78A1.78,1.78,0,0,0,34.69,24.35Z"/></g></g></svg>
