<svg xmlns="http://www.w3.org/2000/svg" viewBox="0 0 323.12 169.64"><defs><style>.cls-1{fill:#fff;}.cls-2{fill:#2a2a2a;}</style></defs><g id="Layer_2" data-name="Layer 2"><g id="Layer_1-2" data-name="Layer 1"><path class="cls-1" d="M113,6H227.33a11.06,11.06,0,0,1,11.06,11.06V142.45a0,0,0,0,1,0,0H113a11.06,11.06,0,0,1-11.06-11.06V17.06A11.06,11.06,0,0,1,113,6Z"/><path class="cls-2" d="M244.38,148.45H113a17.08,17.08,0,0,1-17.06-17.06V17.06A17.08,17.08,0,0,1,113,0H227.33a17.07,17.07,0,0,1,17,17.06ZM113,12a5.07,5.07,0,0,0-5.06,5.06V131.39a5.07,5.07,0,0,0,5.06,5.06H232.38V17.06a5.06,5.06,0,0,0-5-5.06Z"/><path class="cls-1" d="M238.38,142.45H309.2a7.92,7.92,0,0,0,7.92-7.93v-32.2a7.91,7.91,0,0,0-2.32-5.61L279.67,61.58a7.91,7.91,0,0,0-5.6-2.32H246.31a7.93,7.93,0,0,0-7.93,7.92Z"/><path class="cls-2" d="M309.2,148.45H232.38V67.18a13.94,13.94,0,0,1,13.93-13.92h27.76a13.82,13.82,0,0,1,9.84,4.08L319,92.47a13.84,13.84,0,0,1,4.08,9.85v32.2A13.94,13.94,0,0,1,309.2,148.45Zm-64.82-12H309.2a1.93,1.93,0,0,0,1.92-1.93v-32.2a2,2,0,0,0-.56-1.37L275.43,65.82a1.94,1.94,0,0,0-1.36-.56H246.31a1.93,1.93,0,0,0-1.93,1.92Z"/><path class="cls-2" d="M314.8,102.71H270a14.16,14.16,0,0,1-14.15-14.14V59.26h12V88.57A2.14,2.14,0,0,0,270,90.71H314.8Z"/><circle class="cls-1" cx="160.29" cy="142.45" r="21.19"/><path class="cls-2" d="M160.29,169.64a27.19,27.19,0,1,1,27.19-27.19A27.22,27.22,0,0,1,160.29,169.64Zm0-42.38a15.19,15.19,0,1,0,15.19,15.19A15.2,15.2,0,0,0,160.29,127.26Z"/><circle class="cls-1" cx="277.75" cy="142.45" r="21.19"/><path class="cls-2" d="M277.75,169.64A27.19,27.19,0,1,1,305,142.45,27.22,27.22,0,0,1,277.75,169.64Zm0-42.38A15.19,15.19,0,1,0,293,142.45,15.21,15.21,0,0,0,277.75,127.26Z"/><rect class="cls-2" x="27.51" y="24.34" width="58.14" height="12.13" rx="6.07"/><rect class="cls-2" x="8.36" y="49.55" width="77.28" height="12.13" rx="6.07"/><rect class="cls-2" y="74.76" width="85.64" height="12.13" rx="6.07"/><rect class="cls-2" x="40.18" y="99.98" width="45.46" height="12.13" rx="6.07"/></g></g></svg>
