<svg xmlns="http://www.w3.org/2000/svg" viewBox="0 0 198.95 115.74"><defs><style>.cls-1{fill:#2A2A2A;}</style></defs><g id="Layer_2" data-name="Layer 2"><g id="Layer_1-2" data-name="Layer 1"><path class="cls-1" d="M99.48,105.14,8.67,14.33a4,4,0,0,1,0-5.66h0a4,4,0,0,1,5.65,0L99.48,93.82,184.63,8.67a4,4,0,0,1,5.65,0h0a4,4,0,0,1,0,5.66Z"/><path class="cls-1" d="M99.48,115.74,3.36,19.63A11.5,11.5,0,0,1,19.63,3.37L99.48,83.22,179.32,3.37A11.44,11.44,0,0,1,187.46,0h0a11.5,11.5,0,0,1,8.13,19.63Z"/></g></g></svg>