<svg xmlns="http://www.w3.org/2000/svg" viewBox="0 0 24.5 22.6"><defs><style>.cls-1{fill-rule:evenodd;}</style></defs><g id="Layer_2" data-name="Layer 2"><g id="Layer_1-2" data-name="Layer 1"><path class="cls-1" d="M12.25,20.84c-5.63-5.54-11-10.29-11-14.4A5.06,5.06,0,0,1,6.53,1.25c1.31,0,4.15.5,5.72,4.46,1.59-4,4.46-4.45,5.73-4.45a5,5,0,0,1,5.27,5.18c0,4.07-5.14,8.63-11,14.4M18,.26A6.53,6.53,0,0,0,12.25,3.5,6.51,6.51,0,0,0,6.53.25,6,6,0,0,0,.25,6.44c0,4.66,5.57,9.43,12,15.81,6.43-6.38,12-11.15,12-15.81A6,6,0,0,0,18,.26"/><path d="M12.25,22.6l-.18-.17c-.81-.81-1.61-1.59-2.38-2.35C4.27,14.79,0,10.62,0,6.44A6.28,6.28,0,0,1,6.53,0a6.77,6.77,0,0,1,5.72,3A6.79,6.79,0,0,1,18,0,6.27,6.27,0,0,1,24.5,6.44c0,4.18-4.28,8.35-9.69,13.64-.77.76-1.57,1.54-2.38,2.35ZM6.53.5a5.8,5.8,0,0,0-6,5.94c0,4,4.21,8.08,9.54,13.28.72.71,1.46,1.43,2.21,2.18.75-.75,1.49-1.47,2.21-2.17C19.79,14.52,24,10.41,24,6.44A5.79,5.79,0,0,0,18,.51a6.27,6.27,0,0,0-5.51,3.11L12.25,4,12,3.62A6.29,6.29,0,0,0,6.53.5Zm5.72,20.69L12.07,21l-1.73-1.69C5.33,14.44,1,10.23,1,6.44A5.34,5.34,0,0,1,6.53,1c1.18,0,4,.41,5.72,4.07C14,1.42,16.79,1,18,1A5.25,5.25,0,0,1,23.5,6.44c0,3.76-4.12,7.78-9.33,12.87L12.43,21ZM6.53,1.5a4.81,4.81,0,0,0-5,4.94C1.5,10,5.76,14.17,10.69,19l1.56,1.52L13.83,19C19,14,23,10,23,6.44a4.77,4.77,0,0,0-5-4.93c-1.14,0-4,.42-5.5,4.29l-.23.58L12,5.8C10.48,1.92,7.67,1.5,6.53,1.5Z"/></g></g></svg>