<svg xmlns="http://www.w3.org/2000/svg" viewBox="0 0 105.1 79.57"><defs><style>.cls-1{fill:#2a2a2a;}</style></defs><g id="Layer_2" data-name="Layer 2"><g id="Layer_1-2" data-name="Layer 1"><rect class="cls-1" x="43.97" y="9.28" width="61.13" height="8.25" rx="4.12"/><rect class="cls-1" x="26.44" y="62.04" width="78.66" height="8.25" rx="4.12"/><rect class="cls-1" x="85.9" y="35.66" width="19.2" height="8.25" rx="4.12"/><path class="cls-1" d="M18.7,79.57a13.4,13.4,0,1,1,13.4-13.4A13.42,13.42,0,0,1,18.7,79.57Zm0-18.8a5.4,5.4,0,1,0,5.4,5.4A5.41,5.41,0,0,0,18.7,60.77Z"/><rect class="cls-1" y="62.04" width="11.27" height="8.25" rx="4.12"/><rect class="cls-1" y="35.66" width="72.69" height="8.25" rx="4.12"/><rect class="cls-1" y="9.28" width="30.08" height="8.25" rx="4.12"/><path class="cls-1" d="M79.17,53.19a13.41,13.41,0,1,1,13.41-13.4A13.41,13.41,0,0,1,79.17,53.19Zm0-18.81a5.41,5.41,0,1,0,5.41,5.41A5.41,5.41,0,0,0,79.17,34.38Z"/><path class="cls-1" d="M36.34,26.81A13.41,13.41,0,1,1,49.75,13.4,13.42,13.42,0,0,1,36.34,26.81ZM36.34,8a5.41,5.41,0,1,0,5.41,5.4A5.4,5.4,0,0,0,36.34,8Z"/></g></g></svg>