<svg xmlns="http://www.w3.org/2000/svg" viewBox="0 0 208.9 208.9"><defs><style>.cls-1{fill:#2a2a2a;}</style></defs><g id="Layer_2" data-name="Layer 2"><g id="Layer_1-2" data-name="Layer 1"><path class="cls-1" d="M104.45,208.9A104.45,104.45,0,1,1,208.9,104.45,104.57,104.57,0,0,1,104.45,208.9Zm0-183.9a79.45,79.45,0,1,0,79.45,79.45A79.54,79.54,0,0,0,104.45,25Z"/><path class="cls-1" d="M103.9,11.44h0a6,6,0,0,1,6,6V34.18a2.26,2.26,0,0,1-2.26,2.26H100a2.09,2.09,0,0,1-2.09-2.09V17.44A6,6,0,0,1,103.9,11.44Z" transform="matrix(-1, 0, 0, -1, 207.81, 47.88)"/><path class="cls-1" d="M23.94,92.49h0a6,6,0,0,1,6,6v16.74a2.26,2.26,0,0,1-2.26,2.26H20a2.09,2.09,0,0,1-2.09-2.09V98.5a6,6,0,0,1,6-6Z" transform="translate(128.94 81.05) rotate(90)"/><path class="cls-1" d="M185,91.4h0a6,6,0,0,1,6,6v16.74a2.26,2.26,0,0,1-2.26,2.26H181a2.09,2.09,0,0,1-2.09-2.09V97.4A6,6,0,0,1,185,91.4Z" transform="translate(81.05 288.86) rotate(-90)"/><circle class="cls-1" cx="104.45" cy="104.45" r="21.33"/><path class="cls-1" d="M63.72,27.59h0a3.5,3.5,0,0,1,3.5,3.5v9.39a1.94,1.94,0,0,1-1.94,1.94H62.09a1.87,1.87,0,0,1-1.87-1.87V31.09a3.5,3.5,0,0,1,3.5-3.5Z" transform="matrix(-0.87, 0.5, -0.5, -0.87, 136.41, 33.45)"/><path class="cls-1" d="M34.45,57.25h0a3.5,3.5,0,0,1,3.5,3.5v9.39A1.94,1.94,0,0,1,36,72.08H32.82A1.87,1.87,0,0,1,31,70.21V60.75a3.5,3.5,0,0,1,3.5-3.5Z" transform="translate(107.69 67.16) rotate(120)"/><path class="cls-1" d="M35,137.76h0a3.5,3.5,0,0,1,3.5,3.5v9.39a1.94,1.94,0,0,1-1.94,1.94H33.37a1.87,1.87,0,0,1-1.87-1.87v-9.46A3.5,3.5,0,0,1,35,137.76Z" transform="translate(143.23 42.28) rotate(60)"/><path class="cls-1" d="M64.67,167h0a3.5,3.5,0,0,1,3.5,3.5v9.39a1.94,1.94,0,0,1-1.94,1.94H63A1.87,1.87,0,0,1,61.17,180v-9.46A3.5,3.5,0,0,1,64.67,167Z" transform="translate(95.89 -8.96) rotate(30)"/><path class="cls-1" d="M145.18,166.48h0a3.5,3.5,0,0,1,3.5,3.5v9.39a1.94,1.94,0,0,1-1.94,1.94h-3.19a1.87,1.87,0,0,1-1.87-1.87V170A3.5,3.5,0,0,1,145.18,166.48Z" transform="translate(-67.5 95.89) rotate(-30)"/><path class="cls-1" d="M174.44,136.81h0a3.5,3.5,0,0,1,3.5,3.5v9.39a1.94,1.94,0,0,1-1.94,1.94h-3.19a1.87,1.87,0,0,1-1.87-1.87v-9.46a3.5,3.5,0,0,1,3.5-3.5Z" transform="translate(-37.68 223.19) rotate(-60)"/><path class="cls-1" d="M173.9,56.31h0a3.5,3.5,0,0,1,3.5,3.5V69.2a1.94,1.94,0,0,1-1.94,1.94h-3.19a1.87,1.87,0,0,1-1.87-1.87V59.81a3.5,3.5,0,0,1,3.5-3.5Z" transform="translate(205.66 246.18) rotate(-120)"/><path class="cls-1" d="M144.23,27h0a3.5,3.5,0,0,1,3.5,3.5v9.39a1.94,1.94,0,0,1-1.94,1.94H142.6A1.87,1.87,0,0,1,140.73,40V30.54a3.5,3.5,0,0,1,3.5-3.5Z" transform="translate(251.91 136.41) rotate(-150)"/><path class="cls-1" d="M105,172.39h0a6,6,0,0,1,6,6v16.74a2.26,2.26,0,0,1-2.26,2.26h-7.66A2.09,2.09,0,0,1,99,195.31V178.4a6,6,0,0,1,6-6Z"/></g></g></svg>