<svg xmlns="http://www.w3.org/2000/svg" viewBox="0 0 139.99 139.99"><defs><style>.cls-1{fill:#231f20;}.cls-2{fill:none;stroke:#231f20;stroke-miterlimit:10;stroke-width:5px;}</style></defs><g id="Layer_2" data-name="Layer 2"><g id="Layer_1-2" data-name="Layer 1"><g id="Layer_2-2" data-name="Layer 2"><g id="Layer_1-2-2" data-name="Layer 1-2"><path class="cls-1" d="M80.48,48.62a2.51,2.51,0,0,1,1.77.73l18.86,18.86a2.54,2.54,0,0,1,.52.74,2.58,2.58,0,0,1,.25,1.06,2.62,2.62,0,0,1-.73,1.77L82.28,90.64a2.51,2.51,0,0,1-3.55,0h0a2.52,2.52,0,0,1,0-3.54L93.31,72.54H40.63a2.51,2.51,0,1,1,0-5H93.31L78.7,52.86a2.52,2.52,0,0,1,0-3.55A2.55,2.55,0,0,1,80.48,48.62Z"/></g></g><circle class="cls-2" cx="70" cy="70" r="67.5"/></g></g></svg>