<svg xmlns="http://www.w3.org/2000/svg" viewBox="0 0 183.22 196.31"><defs><style>.cls-1{fill:#fff;}.cls-2{fill:#231f20;}</style></defs><g id="Layer_2" data-name="Layer 2"><g id="Layer_1-2" data-name="Layer 1"><path class="cls-1" d="M90.53,48.47,48.32,72.84a1.12,1.12,0,0,0-.54,1v48.74a1.09,1.09,0,0,0,.54.94l42.21,24.37a1.07,1.07,0,0,0,1.09,0l42.22-24.37a1.09,1.09,0,0,0,.54-.94V73.79a1.12,1.12,0,0,0-.54-1L91.62,48.47A1.11,1.11,0,0,0,90.53,48.47Z"/><path class="cls-2" d="M91.08,154a7,7,0,0,1-3.55-1L45.32,128.67a7.11,7.11,0,0,1-3.54-6.14V73.79a7.12,7.12,0,0,1,3.53-6.14L87.53,43.28a7.09,7.09,0,0,1,7.1,0l42.2,24.37a7.11,7.11,0,0,1,3.55,6.14v48.74a7.11,7.11,0,0,1-3.54,6.13L94.62,153A7.07,7.07,0,0,1,91.08,154Zm-2.45-11.35h0Zm4.89,0h0ZM53.78,119.69l37.3,21.54,37.3-21.54V76.62L91.08,55.09,53.78,76.62Zm34.84-66h0Zm4.92,0h0Z"/><polyline class="cls-1" points="134.38 73.16 91.08 98.16 47.78 73.16"/><polygon class="cls-2" points="91.08 105.08 44.78 78.35 50.78 67.96 91.08 91.23 131.38 67.96 137.38 78.35 91.08 105.08"/><line class="cls-1" x1="91.08" y1="148.16" x2="91.08" y2="98.16"/><rect class="cls-2" x="85.08" y="98.16" width="12" height="50"/><path class="cls-2" d="M113,113.39h0a6,6,0,0,1-6-6V92.94a6,6,0,0,0-3-5.19L66.7,66.21l6-10.39,43.3,25A6,6,0,0,1,119,86v21.38A6,6,0,0,1,113,113.39Z"/><path class="cls-2" d="M84.88,180.87a6.14,6.14,0,0,1-6.44,6.3C34.63,183.7,0,145.1,0,98.16s34.63-85.55,78.44-89a6.14,6.14,0,0,1,6.44,6.3h0a6.19,6.19,0,0,1-5.57,6.29C41.72,24.73,12,57.86,12,98.16s29.72,73.43,67.31,76.43a6.18,6.18,0,0,1,5.57,6.28Z"/><path class="cls-2" d="M66.09,193.72h0a6.52,6.52,0,0,1,1.31-8.81l6.23-4.79-4.55-6.55a6.53,6.53,0,0,1,1.31-8.82h0a5.81,5.81,0,0,1,8.38,1.38l10.42,15a2.21,2.21,0,0,1-.44,3l-14.28,11A5.8,5.8,0,0,1,66.09,193.72Z"/><path class="cls-2" d="M98.34,15.44a6.14,6.14,0,0,1,6.44-6.3c43.8,3.47,78.44,42.07,78.44,89s-34.64,85.54-78.44,89a6.13,6.13,0,0,1-6.44-6.3h0a6.18,6.18,0,0,1,5.57-6.28c37.59-3,67.31-36.14,67.31-76.43S141.5,24.73,103.91,21.73a6.19,6.19,0,0,1-5.57-6.29Z"/><path class="cls-2" d="M117.13,2.59h0a6.53,6.53,0,0,1-1.31,8.82l-6.23,4.78,4.55,6.55a6.53,6.53,0,0,1-1.31,8.82h0a5.8,5.8,0,0,1-8.38-1.37L94,15.17a2.23,2.23,0,0,1,.45-3l14.27-11A5.83,5.83,0,0,1,117.13,2.59Z"/></g></g></svg>
