<svg xmlns="http://www.w3.org/2000/svg" viewBox="0 0 224.94 224.94"><defs><style>.cls-1{fill:#89c54a;}.cls-2{fill:#f7f7f7;}</style></defs><g id="Layer_2" data-name="Layer 2"><g id="Layer_1-2" data-name="Layer 1"><path class="cls-1" d="M90.91,158.13,53.07,120.28a2.75,2.75,0,0,1,0-3.9h0a2.75,2.75,0,0,1,3.9,0l33.94,33.94L168,73.26a2.76,2.76,0,0,1,3.9,0h0a2.75,2.75,0,0,1,0,3.9Z"/><path class="cls-1" d="M90.91,165.45l-41.5-41.51a7.93,7.93,0,1,1,11.22-11.22L90.91,143l73.4-73.4a7.91,7.91,0,0,1,5.61-2.32h0a7.94,7.94,0,0,1,5.61,13.55Z"/><path class="cls-2" d="M112.47,0A112.47,112.47,0,1,0,224.94,112.47,112.46,112.46,0,0,0,112.47,0Zm0,204.38A91.42,91.42,0,1,1,203.88,113,91.42,91.42,0,0,1,112.47,204.38Z"/></g></g></svg>
