<svg id="Layer_1" data-name="Layer 1" xmlns="http://www.w3.org/2000/svg" viewBox="0 0 165.94 69.09"><defs><style>.cls-1{fill:#5a189a;}.cls-2{isolation:isolate;}.cls-3{fill:#fff;}</style></defs><g id="Group_1" data-name="Group 1"><path id="Rectangle_3" data-name="Rectangle 3" class="cls-1" d="M22.19,0h0A22.19,22.19,0,0,1,44.38,22.19V46.9A22.19,22.19,0,0,1,22.19,69.09h0A22.18,22.18,0,0,1,0,46.9V22.19A22.18,22.18,0,0,1,22.19,0Z"/><g id="TIMED" class="cls-2"><g class="cls-2"><path class="cls-1" d="M59.11,37.39a2.82,2.82,0,0,1-.82-2.13V16H52.13c-1.87,0-2.81-.81-2.81-2.44s.94-2.39,2.81-2.39H70.37c1.88,0,2.82.8,2.82,2.39S72.25,16,70.37,16H64.22V35.26a2.88,2.88,0,0,1-.8,2.13,3.3,3.3,0,0,1-4.31,0Z"/><path class="cls-1" d="M76.53,37.43a2.93,2.93,0,0,1-.8-2.17V14a2.88,2.88,0,0,1,.8-2.13,3.33,3.33,0,0,1,4.33,0,2.88,2.88,0,0,1,.8,2.13V35.26a3.06,3.06,0,0,1-5.13,2.17Z"/><path class="cls-1" d="M112.8,11.84a2.91,2.91,0,0,1,.78,2.11V35.53a2.68,2.68,0,0,1-.72,2,2.83,2.83,0,0,1-3.77,0,2.68,2.68,0,0,1-.72-2V22.12L103,32.26a4.34,4.34,0,0,1-1.16,1.45,2.51,2.51,0,0,1-1.5.45,2.55,2.55,0,0,1-1.49-.45,4.12,4.12,0,0,1-1.17-1.45l-5.4-9.95V35.53a2.71,2.71,0,0,1-.72,2,2.55,2.55,0,0,1-1.9.74,2.52,2.52,0,0,1-1.86-.72,2.64,2.64,0,0,1-.73-2V14a2.91,2.91,0,0,1,.78-2.11,2.67,2.67,0,0,1,2-.82A3,3,0,0,1,92.64,13l7.71,14.63L108,13A3.08,3.08,0,0,1,110.77,11,2.67,2.67,0,0,1,112.8,11.84Z"/><path class="cls-1" d="M119.7,37.28a2.75,2.75,0,0,1-.73-2.05V14a2.75,2.75,0,0,1,.73-2.05,2.77,2.77,0,0,1,2-.72H135.2c1.87,0,2.81.76,2.81,2.28s-.94,2.32-2.81,2.32H124.75v6.27h9.69c1.87,0,2.81.77,2.81,2.32s-.94,2.28-2.81,2.28h-9.69V33.4H135.2c1.87,0,2.81.77,2.81,2.32S137.07,38,135.2,38H121.75A2.77,2.77,0,0,1,119.7,37.28Z"/><path class="cls-1" d="M142.23,37.28a2.78,2.78,0,0,1-.72-2.05V14a2.78,2.78,0,0,1,.72-2.05,2.77,2.77,0,0,1,2.05-.72h7.64a16.39,16.39,0,0,1,7.52,1.6,11.11,11.11,0,0,1,4.83,4.59,14.64,14.64,0,0,1,1.67,7.19,14.84,14.84,0,0,1-1.65,7.2,11,11,0,0,1-4.81,4.61,16.48,16.48,0,0,1-7.56,1.6h-7.64A2.77,2.77,0,0,1,142.23,37.28Zm17.82-12.69q0-8.6-8.55-8.59h-4.06V33.21h4.06Q160,33.21,160.05,24.59Z"/></g></g><g id="SHOP" class="cls-2"><g class="cls-2"><path class="cls-1" d="M56.48,60.65a7,7,0,0,1-2.63-1.45,1.09,1.09,0,0,1-.36-.84,1,1,0,0,1,.19-.59.56.56,0,0,1,.46-.25,1.18,1.18,0,0,1,.67.26,8,8,0,0,0,5.09,1.73,5.4,5.4,0,0,0,3.17-.79,2.63,2.63,0,0,0,1.1-2.26,1.8,1.8,0,0,0-.53-1.35,3.7,3.7,0,0,0-1.39-.83,21.14,21.14,0,0,0-2.33-.65,22.17,22.17,0,0,1-3.23-1,4.82,4.82,0,0,1-2-1.44,3.64,3.64,0,0,1-.78-2.45,4.26,4.26,0,0,1,.78-2.55,4.93,4.93,0,0,1,2.18-1.73,7.87,7.87,0,0,1,3.2-.61,9.44,9.44,0,0,1,3.14.51,6.75,6.75,0,0,1,2.43,1.48,1.18,1.18,0,0,1,.39.84,1,1,0,0,1-.2.59.55.55,0,0,1-.45.25,1.52,1.52,0,0,1-.7-.26A8.25,8.25,0,0,0,62.47,46,7,7,0,0,0,60,45.57,5,5,0,0,0,57,46.4a2.71,2.71,0,0,0-1.11,2.31,2.14,2.14,0,0,0,1,1.91,10,10,0,0,0,3,1.12,33.78,33.78,0,0,1,3.43,1A5,5,0,0,1,65.31,54a3.35,3.35,0,0,1,.83,2.38,4.14,4.14,0,0,1-.78,2.49,5,5,0,0,1-2.2,1.68,8.21,8.21,0,0,1-3.24.6A10.91,10.91,0,0,1,56.48,60.65Z"/><path class="cls-1" d="M83.09,44.24a1,1,0,0,1,.26.73V60.11a1,1,0,0,1-.26.73.87.87,0,0,1-.7.28.91.91,0,0,1-.72-.28,1,1,0,0,1-.27-.73V53.25H71.27v6.86a1,1,0,0,1-.26.73.94.94,0,0,1-.72.28.91.91,0,0,1-.71-.28,1,1,0,0,1-.25-.73V45a1,1,0,0,1,.25-.73.91.91,0,0,1,.71-.28.94.94,0,0,1,.72.28,1,1,0,0,1,.26.73v6.6H81.4V45a1,1,0,0,1,.27-.73.91.91,0,0,1,.72-.28A.87.87,0,0,1,83.09,44.24Z"/><path class="cls-1" d="M90.51,60.14a7,7,0,0,1-2.68-3,10.56,10.56,0,0,1-.93-4.59,10.85,10.85,0,0,1,.92-4.62,6.85,6.85,0,0,1,2.67-3,8.66,8.66,0,0,1,8.23,0,6.77,6.77,0,0,1,2.66,3,11.76,11.76,0,0,1,0,9.19,6.92,6.92,0,0,1-2.68,3,8.49,8.49,0,0,1-8.18,0Zm8.28-2.44a7.91,7.91,0,0,0,1.5-5.17,7.91,7.91,0,0,0-1.49-5.16,5.78,5.78,0,0,0-8.39,0,7.87,7.87,0,0,0-1.5,5.15,7.93,7.93,0,0,0,1.5,5.16,5.74,5.74,0,0,0,8.38,0Z"/><path class="cls-1" d="M106.12,60.84a1,1,0,0,1-.26-.73V45a.94.94,0,0,1,.27-.7,1.06,1.06,0,0,1,.74-.26h5.68a6,6,0,0,1,4.14,1.3,4.59,4.59,0,0,1,1.48,3.67,4.68,4.68,0,0,1-1.49,3.69,6,6,0,0,1-4.13,1.32h-4.72v6a1,1,0,0,1-.27.73.91.91,0,0,1-.72.28A.94.94,0,0,1,106.12,60.84Zm10.11-11.79q0-3.34-3.87-3.34h-4.53v6.72h4.53Q116.23,52.43,116.23,49.05Z"/></g></g><g id="Layer_2" data-name="Layer 2"><g id="Layer_1-2" data-name="Layer 1"><path id="Path_13" data-name="Path 13" class="cls-3" d="M22.19,41.09A18.49,18.49,0,1,1,40.68,22.6h0A18.49,18.49,0,0,1,22.19,41.09Zm0-32.55A14.07,14.07,0,1,0,36.25,22.6,14.05,14.05,0,0,0,22.19,8.54Z"/><path id="Rectangle_2" data-name="Rectangle 2" class="cls-3" d="M22.19,21.77h0a2.13,2.13,0,0,1,2.12,2.13v39A2.12,2.12,0,0,1,22.19,65h0a2.12,2.12,0,0,1-2.12-2.12v-39A2.13,2.13,0,0,1,22.19,21.77Z"/><path id="Path_14" data-name="Path 14" class="cls-3" d="M28.77,16.23h0a2.12,2.12,0,0,1,0,3l-4,4a.8.8,0,0,1-1.13,0l-1.91-1.92a.73.73,0,0,1,0-1h0l4-4A2.12,2.12,0,0,1,28.77,16.23Z"/><path id="Path_15" data-name="Path 15" class="cls-3" d="M22.09,10.56h0A1.06,1.06,0,0,1,21,9.5v-3a.4.4,0,0,1,.4-.4h1.35a.36.36,0,0,1,.37.37h0v3a1.05,1.05,0,0,1-1.06,1.06Z"/><path id="Path_16" data-name="Path 16" class="cls-3" d="M10.15,22.7h0a1.06,1.06,0,0,1-1.06,1.06h-3a.4.4,0,0,1-.4-.4h0V22a.37.37,0,0,1,.37-.37h3a1.06,1.06,0,0,1,1.06,1.06Z"/><path id="Path_17" data-name="Path 17" class="cls-3" d="M34.23,22.5h0a1.05,1.05,0,0,1,1.06-1.06h3a.4.4,0,0,1,.4.4h0v1.37a.37.37,0,0,1-.37.37h-3a1.06,1.06,0,0,1-1.06-1.07Z"/><circle id="Ellipse_3" data-name="Ellipse 3" class="cls-3" cx="22.19" cy="22.6" r="3.78"/><path id="Path_18" data-name="Path 18" class="cls-3" d="M15.64,11.44h0a.62.62,0,0,1-.85-.22L14,9.78a.34.34,0,0,1,.12-.47L14.57,9a.33.33,0,0,1,.46.12h0l.83,1.45A.61.61,0,0,1,15.64,11.44Z"/><path id="Path_19" data-name="Path 19" class="cls-3" d="M10.94,16.22h0a.63.63,0,0,1-.85.22l-1.44-.83a.34.34,0,0,1-.12-.47h0l.28-.49a.33.33,0,0,1,.45-.11l1.45.84a.62.62,0,0,1,.22.84Z"/><path id="Path_20" data-name="Path 20" class="cls-3" d="M11,29.16h0a.61.61,0,0,1-.22.84l-1.44.83a.34.34,0,0,1-.47-.12l-.28-.49a.32.32,0,0,1,.12-.45h0l1.45-.84A.61.61,0,0,1,11,29.16Z"/><path id="Path_21" data-name="Path 21" class="cls-3" d="M15.81,33.85h0a.62.62,0,0,1,.22.85l-.83,1.44a.34.34,0,0,1-.46.13l-.5-.29a.34.34,0,0,1-.12-.45L15,34.08a.62.62,0,0,1,.84-.22Z"/><path id="Path_22" data-name="Path 22" class="cls-3" d="M28.74,33.76h0a.63.63,0,0,1,.85.22l.83,1.44a.34.34,0,0,1-.12.47l-.49.29a.34.34,0,0,1-.46-.13h0l-.83-1.44a.61.61,0,0,1,.22-.85Z"/><path id="Path_23" data-name="Path 23" class="cls-3" d="M33.44,29h0a.63.63,0,0,1,.85-.23l1.44.83a.35.35,0,0,1,.13.47l-.29.49a.33.33,0,0,1-.45.12h0l-1.45-.84A.62.62,0,0,1,33.44,29Z"/><path id="Path_24" data-name="Path 24" class="cls-3" d="M33.35,16.05h0a.62.62,0,0,1,.22-.85L35,14.37a.34.34,0,0,1,.47.12l.28.49a.33.33,0,0,1-.12.46h0l-1.45.83A.61.61,0,0,1,33.35,16.05Z"/><path id="Path_25" data-name="Path 25" class="cls-3" d="M28.57,11.35h0a.61.61,0,0,1-.23-.84l.84-1.44a.34.34,0,0,1,.46-.13l.49.29a.32.32,0,0,1,.13.44l-.84,1.45a.62.62,0,0,1-.85.23Z"/></g></g></g></svg>
