<svg xmlns="http://www.w3.org/2000/svg" viewBox="0 0 533.85 343.86"><defs><style>.cls-1{fill:none;stroke:#2a2a2a;stroke-miterlimit:10;stroke-width:25px;}.cls-2{fill:#2a2a2a;}</style></defs><g id="Layer_2" data-name="Layer 2"><g id="Layer_1-2" data-name="Layer 1"><circle class="cls-1" cx="139.62" cy="104.45" r="91.95"/><rect class="cls-2" x="127.62" y="99.78" width="24" height="244.08" rx="12"/><path class="cls-2" d="M44.29,340a12.81,12.81,0,0,1-3.7-9.63v-87H12.73Q0,243.38,0,232.37q0-10.83,12.73-10.83H95.29q12.72,0,12.73,10.83,0,11-12.73,11H67.42v87A13,13,0,0,1,63.81,340q-3.62,3.61-9.8,3.62A13.3,13.3,0,0,1,44.29,340Z"/><path class="cls-2" d="M293.31,224.37a13.29,13.29,0,0,1,3.53,9.55v97.7q0,5.67-3.27,8.94a11.63,11.63,0,0,1-8.6,3.27,11.41,11.41,0,0,1-8.43-3.27q-3.27-3.27-3.27-8.94V270.9l-24.42,45.92a19.06,19.06,0,0,1-5.25,6.54,11.19,11.19,0,0,1-6.79,2.06,11.32,11.32,0,0,1-6.71-2.06,18.61,18.61,0,0,1-5.33-6.54l-24.42-45.06v59.86a12.12,12.12,0,0,1-3.27,8.85,12.59,12.59,0,0,1-17,.09q-3.27-3.27-3.27-8.94v-97.7a13.29,13.29,0,0,1,3.53-9.55,12.15,12.15,0,0,1,9.2-3.69q8.27,0,12.56,8.77L237,295.67l34.75-66.22q4.63-8.77,12.38-8.77A12.14,12.14,0,0,1,293.31,224.37Z"/><path class="cls-2" d="M324.53,339.53q-3.27-3.27-3.27-9.29V234.09q0-6,3.27-9.29t9.29-3.26h60.89q12.72,0,12.72,10.32,0,10.48-12.72,10.49h-47.3v28.38h43.86q12.72,0,12.73,10.49,0,10.32-12.73,10.32H347.41V322h47.3q12.72,0,12.72,10.5,0,10.32-12.72,10.32H333.82Q327.79,342.8,324.53,339.53Z"/><path class="cls-2" d="M426.52,339.53q-3.25-3.27-3.26-9.29V234.09q0-6,3.26-9.29t9.29-3.26h34.57q19.78,0,34.06,7.22a50.53,50.53,0,0,1,21.85,20.81q7.56,13.59,7.56,32.51t-7.48,32.59a49.75,49.75,0,0,1-21.76,20.9q-14.28,7.23-34.23,7.23H435.81Q429.8,342.8,426.52,339.53Zm80.67-57.45q0-38.86-38.7-38.87h-18.4v77.91h18.4Q507.19,321.12,507.19,282.08Z"/><path class="cls-2" d="M159.72,61.39h0a12,12,0,0,1,12,12v31.76a4.51,4.51,0,0,1-4.51,4.51H151.89a4.17,4.17,0,0,1-4.17-4.17V73.39a12,12,0,0,1,12-12Z" transform="translate(107.26 -87.89) rotate(45)"/><path class="cls-2" d="M139.08,11.44h0a6,6,0,0,1,6,6V34.18a2.26,2.26,0,0,1-2.26,2.26h-7.66a2.09,2.09,0,0,1-2.09-2.09V17.44a6,6,0,0,1,6-6Z" transform="matrix(-1, 0, 0, -1, 278.15, 47.88)"/><path class="cls-2" d="M59.11,92.5h0a6,6,0,0,1,6,6v16.74a2.26,2.26,0,0,1-2.26,2.26H55.2a2.09,2.09,0,0,1-2.09-2.09V98.5a6,6,0,0,1,6-6Z" transform="translate(164.11 45.88) rotate(90)"/><path class="cls-2" d="M220.13,91.4h0a6,6,0,0,1,6,6v16.74a2.26,2.26,0,0,1-2.26,2.26h-7.66a2.09,2.09,0,0,1-2.09-2.09V97.4a6,6,0,0,1,6-6Z" transform="translate(116.23 324.03) rotate(-90)"/><circle class="cls-2" cx="139.62" cy="104.45" r="21.33"/><path class="cls-2" d="M98.89,27.59h0a3.5,3.5,0,0,1,3.5,3.5v9.39a1.94,1.94,0,0,1-1.94,1.94H97.26a1.87,1.87,0,0,1-1.87-1.87V31.09a3.5,3.5,0,0,1,3.5-3.5Z" transform="translate(202.04 15.86) rotate(150)"/><path class="cls-2" d="M69.63,57.25h0a3.5,3.5,0,0,1,3.5,3.5v9.39a1.94,1.94,0,0,1-1.94,1.94H68a1.87,1.87,0,0,1-1.87-1.87V60.75a3.5,3.5,0,0,1,3.5-3.5Z" transform="translate(160.44 36.7) rotate(120)"/><path class="cls-2" d="M70.17,137.76h0a3.5,3.5,0,0,1,3.5,3.5v9.39a1.94,1.94,0,0,1-1.94,1.94H68.54a1.87,1.87,0,0,1-1.87-1.87v-9.46A3.5,3.5,0,0,1,70.17,137.76Z" transform="translate(160.81 11.82) rotate(60)"/><path class="cls-2" d="M99.84,167h0a3.5,3.5,0,0,1,3.5,3.5v9.39a1.94,1.94,0,0,1-1.94,1.94H98.21A1.87,1.87,0,0,1,96.34,180v-9.46a3.5,3.5,0,0,1,3.5-3.5Z" transform="translate(100.6 -26.55) rotate(30)"/><path class="cls-2" d="M180.35,166.48h0a3.5,3.5,0,0,1,3.5,3.5v9.39a1.94,1.94,0,0,1-1.94,1.94h-3.19a1.87,1.87,0,0,1-1.87-1.87V170a3.5,3.5,0,0,1,3.5-3.5Z" transform="translate(-62.79 113.47) rotate(-30)"/><path class="cls-2" d="M209.62,136.81h0a3.5,3.5,0,0,1,3.5,3.5v9.39a1.94,1.94,0,0,1-1.94,1.94H208a1.87,1.87,0,0,1-1.87-1.87v-9.46A3.5,3.5,0,0,1,209.62,136.81Z" transform="translate(-20.1 253.65) rotate(-60)"/><path class="cls-2" d="M209.07,56.31h0a3.5,3.5,0,0,1,3.5,3.5V69.2a1.94,1.94,0,0,1-1.94,1.94h-3.19a1.87,1.87,0,0,1-1.87-1.87V59.81a3.5,3.5,0,0,1,3.5-3.5Z" transform="translate(258.42 276.64) rotate(-120)"/><path class="cls-2" d="M179.4,27h0a3.5,3.5,0,0,1,3.5,3.5v9.39A1.94,1.94,0,0,1,181,41.87h-3.19A1.87,1.87,0,0,1,175.9,40V30.54A3.5,3.5,0,0,1,179.4,27Z" transform="translate(317.54 153.99) rotate(-150)"/></g></g></svg>
