<svg xmlns="http://www.w3.org/2000/svg" viewBox="0 0 542.45 390.1"><defs><style>.cls-1{fill:none;stroke:#2a2a2a;stroke-miterlimit:10;stroke-width:25px;}.cls-2,.cls-3{fill:#2a2a2a;}.cls-3{font-size:172px;font-family:Nunito-ExtraBold, Nunito;font-weight:800;}</style></defs><g id="Layer_2" data-name="Layer 2"><g id="Layer_1-2" data-name="Layer 1"><circle class="cls-1" cx="139.62" cy="104.45" r="91.95"/><rect class="cls-2" x="127.62" y="99.78" width="24" height="244.08" rx="12"/><text class="cls-3" transform="translate(0.51 342.8)">T</text><text class="cls-3" transform="translate(164.4 342.8)">MED</text><path class="cls-2" d="M159.72,61.39h0a12,12,0,0,1,12,12v31.76a4.51,4.51,0,0,1-4.51,4.51H151.89a4.17,4.17,0,0,1-4.17-4.17V73.39a12,12,0,0,1,12-12Z" transform="translate(107.26 -87.89) rotate(45)"/><path class="cls-2" d="M139.07,11.44h0a6,6,0,0,1,6,6V34.18a2.26,2.26,0,0,1-2.26,2.26h-7.66a2.09,2.09,0,0,1-2.09-2.09V17.44a6,6,0,0,1,6-6Z" transform="matrix(-1, 0, 0, -1, 278.15, 47.88)"/><path class="cls-2" d="M59.11,92.5h0a6,6,0,0,1,6,6v16.74a2.26,2.26,0,0,1-2.26,2.26H55.2a2.09,2.09,0,0,1-2.09-2.09V98.5A6,6,0,0,1,59.11,92.5Z" transform="translate(164.11 45.88) rotate(90)"/><path class="cls-2" d="M220.13,91.4h0a6,6,0,0,1,6,6v16.74a2.26,2.26,0,0,1-2.26,2.26h-7.66a2.09,2.09,0,0,1-2.09-2.09V97.4a6,6,0,0,1,6-6Z" transform="translate(116.23 324.03) rotate(-90)"/><circle class="cls-2" cx="139.62" cy="104.45" r="21.33"/><path class="cls-2" d="M98.89,27.59h0a3.5,3.5,0,0,1,3.5,3.5v9.39a1.94,1.94,0,0,1-1.94,1.94H97.26a1.87,1.87,0,0,1-1.87-1.87V31.09a3.5,3.5,0,0,1,3.5-3.5Z" transform="translate(202.04 15.87) rotate(150)"/><path class="cls-2" d="M69.63,57.25h0a3.5,3.5,0,0,1,3.5,3.5v9.39a1.94,1.94,0,0,1-1.94,1.94H68a1.87,1.87,0,0,1-1.87-1.87V60.75A3.5,3.5,0,0,1,69.63,57.25Z" transform="translate(160.44 36.7) rotate(120)"/><path class="cls-2" d="M70.17,137.76h0a3.5,3.5,0,0,1,3.5,3.5v9.39a1.94,1.94,0,0,1-1.94,1.94H68.54a1.87,1.87,0,0,1-1.87-1.87v-9.46A3.5,3.5,0,0,1,70.17,137.76Z" transform="translate(160.81 11.82) rotate(60)"/><path class="cls-2" d="M99.84,167h0a3.5,3.5,0,0,1,3.5,3.5v9.39a1.94,1.94,0,0,1-1.94,1.94H98.21A1.87,1.87,0,0,1,96.34,180v-9.46a3.5,3.5,0,0,1,3.5-3.5Z" transform="translate(100.6 -26.55) rotate(30)"/><path class="cls-2" d="M180.35,166.48h0a3.5,3.5,0,0,1,3.5,3.5v9.39a1.94,1.94,0,0,1-1.94,1.94h-3.19a1.87,1.87,0,0,1-1.87-1.87V170a3.5,3.5,0,0,1,3.5-3.5Z" transform="translate(-62.79 113.47) rotate(-30)"/><path class="cls-2" d="M209.61,136.81h0a3.5,3.5,0,0,1,3.5,3.5v9.39a1.94,1.94,0,0,1-1.94,1.94H208a1.87,1.87,0,0,1-1.87-1.87v-9.46a3.5,3.5,0,0,1,3.5-3.5Z" transform="translate(-20.1 253.65) rotate(-60)"/><path class="cls-2" d="M209.07,56.31h0a3.5,3.5,0,0,1,3.5,3.5V69.2a1.94,1.94,0,0,1-1.94,1.94h-3.19a1.87,1.87,0,0,1-1.87-1.87V59.81a3.5,3.5,0,0,1,3.5-3.5Z" transform="translate(258.42 276.64) rotate(-120)"/><path class="cls-2" d="M179.4,27h0a3.5,3.5,0,0,1,3.5,3.5v9.39A1.94,1.94,0,0,1,181,41.87h-3.19A1.87,1.87,0,0,1,175.9,40V30.54a3.5,3.5,0,0,1,3.5-3.5Z" transform="translate(317.54 153.99) rotate(-150)"/></g></g></svg>