<svg xmlns="http://www.w3.org/2000/svg" width="168.435" height="69.094" viewBox="0 0 168.435 69.094">
  <g id="Group_1" data-name="Group 1" transform="translate(-100 -34.869)">
    <rect id="Rectangle_3" data-name="Rectangle 3" width="44.379" height="69.094" rx="22.19" transform="translate(100 34.869)" fill="#5a189a"/>
    <text id="TIMED" transform="translate(149.435 72.869)" fill="#5a189a" font-size="38" font-family="Nunito" font-weight="800"><tspan x="0" y="0">TIMED</tspan></text>
    <text id="SHOP" transform="translate(152.435 95.869)" fill="#5a189a" font-size="24" font-family="Nunito"><tspan x="0" y="0">SHOP</tspan></text>
    <g id="Layer_2" data-name="Layer 2" transform="translate(103.701 38.982)">
      <g id="Layer_1" data-name="Layer 1" transform="translate(0 0)">
        <path id="Path_13" data-name="Path 13" d="M18.489,36.978A18.489,18.489,0,1,1,36.978,18.489,18.489,18.489,0,0,1,18.489,36.978Zm0-32.553A14.064,14.064,0,1,0,32.553,18.489,14.064,14.064,0,0,0,18.489,4.425Z" transform="translate(0 0)" fill="#fff"/>
        <rect id="Rectangle_2" data-name="Rectangle 2" width="4.248" height="43.205" rx="2.124" transform="translate(16.365 17.662)" fill="#fff"/>
        <path id="Path_14" data-name="Path 14" d="M2.124,0h0A2.124,2.124,0,0,1,4.248,2.124V7.746a.8.8,0,0,1-.8.8H.738A.738.738,0,0,1,0,7.806V2.124A2.124,2.124,0,0,1,2.124,0Z" transform="translate(23.567 10.616) rotate(45)" fill="#fff"/>
        <path id="Path_15" data-name="Path 15" d="M1.06,0h0A1.062,1.062,0,0,1,2.122,1.062V4.025a.4.4,0,0,1-.4.4H.37A.37.37,0,0,1,0,4.055V1.062A1.062,1.062,0,0,1,1.062,0Z" transform="translate(19.452 6.45) rotate(180)" fill="#fff"/>
        <path id="Path_16" data-name="Path 16" d="M1.067,0h0A1.062,1.062,0,0,1,2.129,1.062V4.025a.4.4,0,0,1-.4.4H.37A.37.37,0,0,1,0,4.055V1.062A1.062,1.062,0,0,1,1.062,0Z" transform="translate(6.45 17.517) rotate(90)" fill="#fff"/>
        <path id="Path_17" data-name="Path 17" d="M1.078,0h0A1.062,1.062,0,0,1,2.14,1.062V4.025a.4.4,0,0,1-.4.4H.37A.37.37,0,0,1,0,4.055V1.062A1.062,1.062,0,0,1,1.078,0Z" transform="translate(30.526 19.463) rotate(-90)" fill="#fff"/>
        <ellipse id="Ellipse_3" data-name="Ellipse 3" cx="3.776" cy="3.776" rx="3.776" ry="3.776" transform="translate(14.713 14.713)" fill="#fff"/>
        <path id="Path_18" data-name="Path 18" d="M.62,0h0a.62.62,0,0,1,.62.62V2.282A.343.343,0,0,1,.9,2.625H.331A.331.331,0,0,1,0,2.294V.62A.62.62,0,0,1,.62,0Z" transform="translate(12.473 7.021) rotate(150)" fill="#fff"/>
        <path id="Path_19" data-name="Path 19" d="M.611,0h0a.62.62,0,0,1,.62.62V2.282a.343.343,0,0,1-.345.343H.322A.331.331,0,0,1,0,2.294V.62A.62.62,0,0,1,.62,0Z" transform="translate(7.542 11.573) rotate(120)" fill="#fff"/>
        <path id="Path_20" data-name="Path 20" d="M.62,0h0a.62.62,0,0,1,.62.62V2.282A.343.343,0,0,1,.9,2.625H.331A.331.331,0,0,1,0,2.294V.62A.62.62,0,0,1,.62,0Z" transform="translate(7.023 24.506) rotate(60)" fill="#fff"/>
        <path id="Path_21" data-name="Path 21" d="M.62,0h0a.62.62,0,0,1,.62.62V2.282A.343.343,0,0,1,.9,2.625H.324A.331.331,0,0,1,0,2.3V.627A.62.62,0,0,1,.62.007Z" transform="translate(11.57 29.429) rotate(30)" fill="#fff"/>
        <path id="Path_22" data-name="Path 22" d="M.62,0h0a.62.62,0,0,1,.62.62V2.282A.343.343,0,0,1,.9,2.625H.331A.331.331,0,0,1,0,2.294V.623A.62.62,0,0,1,.62,0Z" transform="translate(24.505 29.955) rotate(-30)" fill="#fff"/>
        <path id="Path_23" data-name="Path 23" d="M.62,0h0a.62.62,0,0,1,.62.62V2.282A.343.343,0,0,1,.9,2.625H.331A.331.331,0,0,1,0,2.294V.62A.62.62,0,0,1,.62,0Z" transform="translate(29.434 25.412) rotate(-60)" fill="#fff"/>
        <path id="Path_24" data-name="Path 24" d="M.62,0h0a.62.62,0,0,1,.62.62V2.282A.343.343,0,0,1,.9,2.625H.331A.331.331,0,0,1,0,2.294V.62A.62.62,0,0,1,.62,0Z" transform="translate(29.955 12.471) rotate(-120)" fill="#fff"/>
        <path id="Path_25" data-name="Path 25" d="M.62,0h0a.62.62,0,0,1,.62.62V2.282A.343.343,0,0,1,.9,2.625H.331A.331.331,0,0,1,0,2.3V.627A.62.62,0,0,1,.62.007Z" transform="translate(25.407 7.552) rotate(-150)" fill="#fff"/>
      </g>
    </g>
  </g>
</svg>
