<?xml version="1.0" encoding="utf-8"?>
<!-- Generator: Adobe Illustrator 25.1.0, SVG Export Plug-In . SVG Version: 6.00 Build 0)  -->
<svg version="1.1" id="bdeff33d-6092-433c-9c79-adf60dbe76dd"
	 xmlns="http://www.w3.org/2000/svg" xmlns:xlink="http://www.w3.org/1999/xlink" x="0px" y="0px" viewBox="0 0 750 750"
	 style="enable-background:new 0 0 750 750;" xml:space="preserve">
<path d="M394.5,3.5h127c0,0-7,163.2,176.4,174.7v126.2c0,0-97.9,6.1-176.4-53.8l1.4,260.5c0,130-105.4,235.5-235.5,235.5
	S52,641.1,52,511c0-130,105.4-235.4,235.4-235.5h33v126.3v2.7C264,386.9,204,418.4,186.4,474.9c-17.6,56.4,13.9,116.5,70.3,134.1
	c56.4,17.6,116.5-13.9,134.1-70.3c3.2-10.3,4.9-21,4.9-31.8L394.5,3.5z"/>
</svg>
