<?xml version="1.0" encoding="utf-8"?>
<!-- Generator: Adobe Illustrator 25.1.0, SVG Export Plug-In . SVG Version: 6.00 Build 0)  -->
<svg version="1.1" id="Layer_1" xmlns="http://www.w3.org/2000/svg" xmlns:xlink="http://www.w3.org/1999/xlink" x="0px" y="0px"
	 viewBox="0 0 56.7 56.7" style="enable-background:new 0 0 56.7 56.7;" xml:space="preserve">
<path d="M56.1,13.1c-2,0.9-4.3,1.5-6.6,1.8c2.4-1.4,4.2-3.7,5-6.3c-2.2,1.3-4.7,2.3-7.3,2.8c-2.1-2.2-5.1-3.6-8.3-3.6
	c-6.3,0-11.4,5.1-11.4,11.4c0,0.9,0.1,1.8,0.3,2.6c-9.5-0.5-17.9-5-23.6-11.9c-1,1.7-1.5,3.6-1.5,5.7c0,4,2,7.5,5.1,9.5
	c-1.9-0.1-3.6-0.6-5.2-1.4c0,0,0,0.1,0,0.1c0,5.5,3.9,10.2,9.2,11.2c-1,0.3-2,0.4-3,0.4c-0.7,0-1.5-0.1-2.2-0.2
	c1.5,4.5,5.7,7.8,10.7,7.9C13.4,46.2,8.4,48,3.1,48c-0.9,0-1.8-0.1-2.7-0.2C5.4,51.1,11.4,53,17.9,53c21,0,32.5-17.4,32.5-32.5
	c0-0.5,0-1,0-1.5C52.6,17.4,54.5,15.4,56.1,13.1z"/>
</svg>
